<svg xmlns="http://www.w3.org/2000/svg" x="0px" y="0px" width="20" height="20" viewBox="0,0,256,256">
<defs><clipPath id="clip-1"><path d="M0,256v-256h256v256zM128,202.928c-1.6896,0 -3.072,1.3824 -3.072,3.072c0,1.6896 1.3824,3.072 3.072,3.072c1.6896,0 3.072,-1.3824 3.072,-3.072c0,-1.6896 -1.3824,-3.072 -3.072,-3.072z" id="overlayBgMask" fill="none" stroke="none" stroke-width="1" stroke-linejoin="miter"></path></clipPath></defs><g transform=""><g clip-path="url(#clip-1)" fill="none" fill-rule="nonzero" stroke="none" stroke-width="none" stroke-linecap="butt" stroke-linejoin="none" stroke-miterlimit="10" stroke-dasharray="" stroke-dashoffset="0" font-family="none" font-weight="none" font-size="none" text-anchor="none" style="mix-blend-mode: normal"><path transform="scale(5.12,5.12)" d="M29,0c1.64453,0 3,1.35547 3,3v2h10c0.35938,-0.00391 0.69531,0.18359 0.87891,0.49609c0.17969,0.3125 0.17969,0.69531 0,1.00781c-0.18359,0.3125 -0.51953,0.5 -0.87891,0.49609h-1.09375l-3.59375,40.5c-0.125,1.39844 -1.31641,2.5 -2.71875,2.5h-19.1875c-1.40234,0 -2.59375,-1.10156 -2.71875,-2.5l-3.59375,-40.5h-1.09375c-0.55078,0.02734 -1.01953,-0.40234 -1.04687,-0.95312c-0.02734,-0.55078 0.40234,-1.01953 0.95313,-1.04687c0.03125,0 1.875,0 1.90625,0c0.125,-0.02344 0.25,-0.02344 0.375,0h7.8125v-2c0,-1.64453 1.35547,-3 3,-3z" id="strokeMainSVG" fill-opacity="0.3098" fill="#ff0000" stroke-opacity="0.3098" stroke="#ff0000" stroke-width="5" stroke-linejoin="round"></path><g transform="scale(5.12,5.12)" fill="#e85d5d" stroke="none" stroke-width="1" stroke-linejoin="miter"><path d="M21,0c-1.64453,0 -3,1.35547 -3,3v2h-7.8125c-0.125,-0.02344 -0.25,-0.02344 -0.375,0h-1.8125c-0.03125,0 -0.0625,0 -0.09375,0c-0.55078,0.02734 -0.98047,0.49609 -0.95312,1.04688c0.02734,0.55078 0.49609,0.98047 1.04688,0.95313h1.09375l3.59375,40.5c0.125,1.39844 1.31641,2.5 2.71875,2.5h19.1875c1.40234,0 2.59375,-1.10156 2.71875,-2.5l3.59375,-40.5h1.09375c0.35938,0.00391 0.69531,-0.18359 0.87891,-0.49609c0.17969,-0.3125 0.17969,-0.69531 0,-1.00781c-0.18359,-0.3125 -0.51953,-0.5 -0.87891,-0.49609h-10v-2c0,-1.64453 -1.35547,-3 -3,-3zM21,2h8c0.5625,0 1,0.4375 1,1v2h-10v-2c0,-0.5625 0.4375,-1 1,-1zM11.09375,7h27.8125l-3.59375,40.34375c-0.03125,0.34766 -0.40234,0.65625 -0.71875,0.65625h-19.1875c-0.31641,0 -0.6875,-0.30859 -0.71875,-0.65625zM18.90625,9.96875c-0.04297,0.00781 -0.08594,0.01953 -0.125,0.03125c-0.46484,0.10547 -0.79297,0.52344 -0.78125,1v33c-0.00391,0.35938 0.18359,0.69531 0.49609,0.87891c0.3125,0.17969 0.69531,0.17969 1.00781,0c0.3125,-0.18359 0.5,-0.51953 0.49609,-0.87891v-33c0.01172,-0.28906 -0.10547,-0.56641 -0.3125,-0.76172c-0.21094,-0.19922 -0.49609,-0.29687 -0.78125,-0.26953zM24.90625,9.96875c-0.04297,0.00781 -0.08594,0.01953 -0.125,0.03125c-0.46484,0.10547 -0.79297,0.52344 -0.78125,1v33c-0.00391,0.35938 0.18359,0.69531 0.49609,0.87891c0.3125,0.17969 0.69531,0.17969 1.00781,0c0.3125,-0.18359 0.5,-0.51953 0.49609,-0.87891v-33c0.01172,-0.28906 -0.10547,-0.56641 -0.3125,-0.76172c-0.21094,-0.19922 -0.49609,-0.29687 -0.78125,-0.26953zM30.90625,9.96875c-0.04297,0.00781 -0.08594,0.01953 -0.125,0.03125c-0.46484,0.10547 -0.79297,0.52344 -0.78125,1v33c-0.00391,0.35938 0.18359,0.69531 0.49609,0.87891c0.3125,0.17969 0.69531,0.17969 1.00781,0c0.3125,-0.18359 0.5,-0.51953 0.49609,-0.87891v-33c0.01172,-0.28906 -0.10547,-0.56641 -0.3125,-0.76172c-0.21094,-0.19922 -0.49609,-0.29687 -0.78125,-0.26953z"></path></g></g><g fill="#000000" fill-rule="nonzero" stroke="none" stroke-width="1" stroke-linecap="butt" stroke-linejoin="miter" stroke-miterlimit="10" stroke-dasharray="" stroke-dashoffset="0" font-family="none" font-weight="none" font-size="none" text-anchor="none" style="mix-blend-mode: normal"><g transform="translate(125.44,203.44) scale(0.256,0.256)" id="overlay"><g id="Слой_2" font-family="Inter, apple-system, BlinkMacSystemFont, &quot;Helvetica Neue&quot;, &quot;Segoe UI&quot;, &quot;Fira Sans&quot;, Roboto, Oxygen, Ubuntu, &quot;Droid Sans&quot;, Arial, sans-serif" font-weight="400" font-size="16" text-anchor="start" visibility="hidden"></g><g id="Android_x5F_4" font-family="Inter, apple-system, BlinkMacSystemFont, &quot;Helvetica Neue&quot;, &quot;Segoe UI&quot;, &quot;Fira Sans&quot;, Roboto, Oxygen, Ubuntu, &quot;Droid Sans&quot;, Arial, sans-serif" font-weight="400" font-size="16" text-anchor="start" visibility="hidden"></g><g id="Android_x5F_5" font-family="Inter, apple-system, BlinkMacSystemFont, &quot;Helvetica Neue&quot;, &quot;Segoe UI&quot;, &quot;Fira Sans&quot;, Roboto, Oxygen, Ubuntu, &quot;Droid Sans&quot;, Arial, sans-serif" font-weight="400" font-size="16" text-anchor="start" visibility="hidden"></g><g id="Windows_x5F_8" font-family="Inter, apple-system, BlinkMacSystemFont, &quot;Helvetica Neue&quot;, &quot;Segoe UI&quot;, &quot;Fira Sans&quot;, Roboto, Oxygen, Ubuntu, &quot;Droid Sans&quot;, Arial, sans-serif" font-weight="400" font-size="16" text-anchor="start" visibility="hidden"></g><g id="Windows_x5F_10" font-family="Inter, apple-system, BlinkMacSystemFont, &quot;Helvetica Neue&quot;, &quot;Segoe UI&quot;, &quot;Fira Sans&quot;, Roboto, Oxygen, Ubuntu, &quot;Droid Sans&quot;, Arial, sans-serif" font-weight="400" font-size="16" text-anchor="start" visibility="hidden"></g><g id="Color" font-family="Inter, apple-system, BlinkMacSystemFont, &quot;Helvetica Neue&quot;, &quot;Segoe UI&quot;, &quot;Fira Sans&quot;, Roboto, Oxygen, Ubuntu, &quot;Droid Sans&quot;, Arial, sans-serif" font-weight="400" font-size="16" text-anchor="start" visibility="hidden"></g><g id="IOS" font-family="Inter, apple-system, BlinkMacSystemFont, &quot;Helvetica Neue&quot;, &quot;Segoe UI&quot;, &quot;Fira Sans&quot;, Roboto, Oxygen, Ubuntu, &quot;Droid Sans&quot;, Arial, sans-serif" font-weight="400" font-size="16" text-anchor="start" visibility="hidden"></g><g id="IOS_copy"><path d="M14.2,7.2l-2.8,2.8l2.8,2.8c0.4,0.4 0.4,1 0,1.4c-0.2,0.2 -0.5,0.3 -0.7,0.3c-0.2,0 -0.5,-0.1 -0.7,-0.3l-2.8,-2.8l-2.8,2.8c-0.2,0.2 -0.5,0.3 -0.7,0.3c-0.2,0 -0.5,-0.1 -0.7,-0.3c-0.4,-0.4 -0.4,-1 0,-1.4l2.8,-2.8l-2.8,-2.8c-0.4,-0.4 -0.4,-1 0,-1.4c0.4,-0.4 1,-0.4 1.4,0l2.8,2.8l2.8,-2.8c0.4,-0.4 1,-0.4 1.4,0c0.4,0.4 0.4,1 0,1.4zM20,10c0,5.5 -4.5,10 -10,10c-5.5,0 -10,-4.5 -10,-10c0,-5.5 4.5,-10 10,-10c5.5,0 10,4.5 10,10zM18,10c0,-4.4 -3.6,-8 -8,-8c-4.4,0 -8,3.6 -8,8c0,4.4 3.6,8 8,8c4.4,0 8,-3.6 8,-8z"></path></g></g></g></g>
</svg>